<?xml version="1.0" encoding="utf-8" ?><svg xmlns="http://www.w3.org/2000/svg" width="452" height="236" viewBox="286 270 452 236"><path fill="#0B2646" d="M648.957 338.414C630.309 312.753 607.713 296.522 574.66 299.184C566.25 300.299 553.378 303.701 546.73 309.139C535.974 317.937 525.327 328.723 515.414 338.476L452.596 401.129C444.06 409.713 431.382 423.663 420.987 429.142C407.331 436.34 388.22 436.806 373.548 432.562C389.019 457.965 415.407 481.174 447.125 478.774C467.989 476.952 477.785 466.83 491.939 453.028C520.48 425.196 548.002 396.342 576.7 368.674C578.318 367.115 579.89 365.582 581.427 364.085C602.075 343.968 616.391 330.02 648.957 338.414Z"/><path fill="#F47A38" d="M725.895 356.595C724.548 352.584 720.608 339.838 716.918 337.717C723.471 359.774 722.701 381.641 711.683 402.09C701.297 421.259 683.758 435.549 662.886 441.848C644.556 447.193 624.944 445.35 607.957 436.39C589.483 426.645 578.349 407.352 563.488 394.839L537.891 420.751C533.096 425.598 525.307 433.178 521.414 438.534C524.641 442.686 528.144 445.583 530.997 449.127C558.196 476.685 577.869 496.769 620.006 496.876C649.833 496.951 678.693 486.363 700.016 465.091C719.871 445.078 730.993 418.016 730.948 389.825C730.922 378.859 729.392 367.008 725.895 356.595Z"/><path fill="#F47A38" d="M401.251 276.853C399.134 276.902 396.129 276.954 394.07 277.203C364.476 279.64 337.095 293.844 318.059 316.635C299.169 339.101 290.184 368.26 293.155 397.462C294.841 415.557 299.208 423.091 305.633 438.995C303.769 429.53 301.93 421.395 301.815 411.707C301.429 379.269 321.336 350.016 350.283 336.025C369.48 327.58 389.412 325.937 409.242 333.61C428.441 341.039 438.589 354.29 451.553 369.426C454.031 372.319 457.471 377.085 459.89 379.675C473.427 366.867 490.17 350.137 502.94 336.544C494.476 328.55 486.089 320.475 477.781 312.32C453.929 289.124 436.805 276.027 401.251 276.853Z"/><path fill="#0B2646" d="M390.201 336.382L390.198 336.382L390.195 336.382C385.902 336.328 379.233 336.244 376.334 336.699C354.971 339.36 338.576 348.712 325.657 365.614C297.477 402.482 309.423 453.246 345.595 479.836C368.597 496.744 392.424 501.702 420.528 498.772C422.529 498.555 426.666 497.788 428.622 497.259C435.364 495.564 440.814 493.748 447.058 490.536C452.308 487.836 456.897 484.759 462.311 482.473C459.145 483.045 456.105 483.776 452.964 484.439C431.94 488.879 409.564 482.028 392.263 469.934C374.26 457.153 362.02 437.791 358.198 416.046C354.583 395.665 358.445 372.152 370.317 354.894C376.673 345.655 382.808 342.052 392.293 336.405C391.702 336.401 390.992 336.392 390.201 336.382Z"/><path fill="#0B2646" d="M642.692 279.146C633.301 277.483 621.391 275.942 611.817 277.191C591.136 279.231 580.242 284.13 562.75 293.919C584.259 288.159 607.18 291.276 626.37 302.571C664.346 324.709 681.386 372.094 659.693 412.089C654.243 422.136 643.336 430.48 633.541 436.059L632.991 436.727C634.653 437.089 636.694 437.044 638.644 437.001C639.601 436.98 640.536 436.96 641.393 436.988C676.198 438.128 705.282 409.737 712.19 377.011C721.927 330.881 687.759 287.128 642.692 279.146Z"/></svg>